<?xml version="1.0" encoding="UTF-8" standalone="no"?>
<!-- Generator: Adobe Illustrator 17.1.0, SVG Export Plug-In . SVG Version: 6.00 Build 0)  -->

<svg
   xmlns:dc="http://purl.org/dc/elements/1.1/"
   xmlns:cc="http://creativecommons.org/ns#"
   xmlns:rdf="http://www.w3.org/1999/02/22-rdf-syntax-ns#"
   xmlns:svg="http://www.w3.org/2000/svg"
   xmlns="http://www.w3.org/2000/svg"
   xmlns:sodipodi="http://sodipodi.sourceforge.net/DTD/sodipodi-0.dtd"
   xmlns:inkscape="http://www.inkscape.org/namespaces/inkscape"
   version="1.1"
   id="Layer_1"
   x="0px"
   y="0px"
   viewBox="0 0 1052.3622 744.09449"
   xml:space="preserve"
   inkscape:version="0.48.2 r9819"
   width="100%"
   height="100%"
   sodipodi:docname="group59.svg"><metadata
   id="metadata9"><rdf:RDF><cc:Work
       rdf:about=""><dc:format>image/svg+xml</dc:format><dc:type
         rdf:resource="http://purl.org/dc/dcmitype/StillImage" /><dc:title></dc:title></cc:Work></rdf:RDF></metadata><defs
   id="defs7" /><sodipodi:namedview
   pagecolor="#ffffff"
   bordercolor="#666666"
   borderopacity="1"
   objecttolerance="10"
   gridtolerance="10"
   guidetolerance="10"
   inkscape:pageopacity="0"
   inkscape:pageshadow="2"
   inkscape:window-width="1064"
   inkscape:window-height="775"
   id="namedview5"
   showgrid="false"
   inkscape:zoom="0.295"
   inkscape:cx="511.52013"
   inkscape:cy="535.59322"
   inkscape:window-x="0"
   inkscape:window-y="0"
   inkscape:window-maximized="0"
   inkscape:current-layer="Layer_1" />
<path
   d="m 630.48836,435.21008 c 35.7391,0 64.71054,-28.97201 64.71054,-64.71052 0,-35.7385 -28.97144,-64.71051 -64.71054,-64.71051 -35.73908,0 -64.71051,28.97201 -64.71051,64.71051 0,35.73851 28.97143,64.71052 64.71051,64.71052 z m 33.72123,-42.01416 c -3.19934,10.57852 -16.90454,18.53057 -33.32995,18.53057 -16.4254,0 -30.13002,-7.95205 -33.32934,-18.53057 22.21976,7.45469 44.43952,5.81935 66.65929,0 z m 75.17716,108.95637 0,21.33041 c 0,3.16184 -2.1075,6.8362 -4.9958,8.12132 -11.19414,4.98116 -41.6182,15.17602 -104.01269,15.17602 -62.3945,0 -92.65339,-10.19544 -103.84751,-15.17602 -2.88889,-1.2857 -4.94134,-4.95948 -4.94134,-8.12132 l 0,-21.33041 c 0,-31.96457 24.11679,-58.48174 55.17053,-62.03309 0.94363,-0.10777 2.23285,0.2958 3.00252,0.85342 14.3179,10.36531 31.79235,16.55192 50.78098,16.55192 18.98801,0 36.49002,-6.18661 50.80791,-16.55192 0.76966,-0.55704 1.93471,-0.96061 2.87834,-0.85342 31.05433,3.55135 55.15706,30.06852 55.15706,62.03309 z m 125.39875,-57.83449 0,12.62392 c 0,1.87087 -1.37767,4.04574 -3.08687,4.80662 -6.62534,2.94804 -24.69668,8.98177 -61.62367,8.98177 -36.92756,0 -56.28694,-6.03373 -62.91228,-8.98177 -1.70978,-0.7603 -4.3755,-2.93515 -4.3755,-4.80662 l 0,-12.62392 c 0,-18.91773 15.69206,-34.61154 34.07091,-36.71377 0.55879,-0.0638 2.03077,0.17513 2.48647,0.50491 8.47394,6.13506 19.17078,9.79655 30.40884,9.79655 11.23806,0 21.77382,-3.66149 30.24776,-9.79655 0.4557,-0.32978 1.36419,-0.56817 1.9224,-0.50491 18.37768,2.10282 32.86194,17.79604 32.86194,36.71377 z m -340.97144,17.43112 c -6.62534,2.94805 -25.3404,8.98178 -62.26797,8.98178 -36.92757,0 -55.32048,-6.03373 -61.94582,-8.98178 -1.70978,-0.76088 -3.40902,-2.93573 -3.40902,-4.80661 l 0,-12.62393 c 0,-18.91773 14.40341,-34.61153 32.78226,-36.71377 0.55822,-0.0638 1.38645,0.17514 1.84158,0.50492 8.47394,6.13506 18.84862,9.79654 30.0861,9.79654 11.23805,0 21.61273,-3.66148 30.08667,-9.79654 0.45513,-0.32978 2.57141,-0.56818 3.13021,-0.50492 18.37886,2.10224 34.0709,17.79604 34.0709,36.71377 l 0,12.62393 c 5.9e-4,1.87088 -2.66513,4.04573 -4.37491,4.80661 z M 460.90177,328.10291 c -21.15117,0 -38.2982,17.14646 -38.2982,38.29821 0,21.15118 17.14644,38.29821 38.2982,38.29821 21.15176,0 38.29821,-17.14645 38.29821,-38.29821 0,-21.15175 -17.14645,-38.29821 -38.29821,-38.29821 z m 0,61.59789 c -9.92014,0 -18.19727,-4.80251 -20.12964,-11.19179 13.41996,4.61395 26.83991,4.26098 40.25987,0 -1.93238,6.38928 -10.20951,11.19179 -20.13023,11.19179 z m 339.17319,-61.59789 c -21.15174,0 -38.2982,17.14646 -38.2982,38.29821 0,21.15118 17.14646,38.29821 38.2982,38.29821 21.15119,0 38.29822,-17.14645 38.29822,-38.29821 0,-21.15175 -17.14703,-38.29821 -38.29822,-38.29821 z m -5.8e-4,61.59789 c -9.92013,0 -18.19727,-4.80251 -20.12963,-11.19179 13.41995,3.68101 26.83991,2.96089 40.25986,0 -1.93237,6.38928 -10.2095,11.19179 -20.13023,11.19179 z"
   id="path3"
   inkscape:connector-curvature="0"
   style="fill:none;stroke:#000000;stroke-width:3.00000005;stroke-miterlimit:4;stroke-opacity:1;stroke-dasharray:none"
   sodipodi:nodetypes="ssssscsccsscscssccsccssscscssccsccscscssccsccsccssssssccsssssssccs"
   inkscape:export-filename="/Users/Brand/Documents/!Projects/EntropiaSite/home/static/home/img/UX.png"
   inkscape:export-xdpi="90"
   inkscape:export-ydpi="90" />
</svg>