<?xml version="1.0" encoding="UTF-8" standalone="no"?>
<!-- Generator: Adobe Illustrator 16.0.0, SVG Export Plug-In . SVG Version: 6.00 Build 0)  -->

<svg
   xmlns:dc="http://purl.org/dc/elements/1.1/"
   xmlns:cc="http://creativecommons.org/ns#"
   xmlns:rdf="http://www.w3.org/1999/02/22-rdf-syntax-ns#"
   xmlns:svg="http://www.w3.org/2000/svg"
   xmlns="http://www.w3.org/2000/svg"
   xmlns:sodipodi="http://sodipodi.sourceforge.net/DTD/sodipodi-0.dtd"
   xmlns:inkscape="http://www.inkscape.org/namespaces/inkscape"
   version="1.1"
   id="Layer_1"
   x="0px"
   y="0px"
   width="1052.3622"
   height="744.09448"
   viewBox="0 0 1052.3622 744.09449"
   enable-background="new 0 0 100 100"
   xml:space="preserve"
   inkscape:version="0.48.2 r9819"
   sodipodi:docname="page63.svg"><metadata
   id="metadata16"><rdf:RDF><cc:Work
       rdf:about=""><dc:format>image/svg+xml</dc:format><dc:type
         rdf:resource="http://purl.org/dc/dcmitype/StillImage" /><dc:title></dc:title></cc:Work></rdf:RDF></metadata><defs
   id="defs14">
	
	
	
</defs><sodipodi:namedview
   pagecolor="#ffffff"
   bordercolor="#666666"
   borderopacity="1"
   objecttolerance="10"
   gridtolerance="10"
   guidetolerance="10"
   inkscape:pageopacity="0"
   inkscape:pageshadow="2"
   inkscape:window-width="1528"
   inkscape:window-height="975"
   id="namedview12"
   showgrid="false"
   showguides="true"
   inkscape:guide-bbox="true"
   inkscape:zoom="0.834386"
   inkscape:cx="578.13874"
   inkscape:cy="344.45056"
   inkscape:window-x="0"
   inkscape:window-y="0"
   inkscape:window-maximized="0"
   inkscape:current-layer="Layer_1"><sodipodi:guide
     orientation="1,0"
     position="239.69721,478.19594"
     id="guide3785" /><sodipodi:guide
     orientation="0,1"
     position="439.84439,562.08997"
     id="guide3787" /><sodipodi:guide
     orientation="1,0"
     position="811.37507,420.66861"
     id="guide3789" /><sodipodi:guide
     orientation="0,1"
     position="430.2565,124.64255"
     id="guide3791" /></sodipodi:namedview>
<rect
   style="fill:#a30000;fill-opacity:1;stroke:#adb0b0;stroke-width:8.26799965;stroke-linecap:round;stroke-linejoin:round;stroke-miterlimit:4;stroke-opacity:1;stroke-dasharray:198.432, 198.432;stroke-dashoffset:0"
   id="rect3783"
   width="930.02521"
   height="787.40533"
   x="750.25232"
   y="-82.860909"
   ry="1.0207497" />
<path
   d="m 794.29799,103.93034 -536.23378,0 c -20.18799,0 -36.5614,16.37343 -36.5614,36.56141 l 0,463.111 c 0,20.188 16.37341,36.5614 36.5614,36.5614 l 536.23378,0 c 20.19408,0 36.5614,-16.3795 36.5614,-36.5614 l 0,-463.111 c 0,-20.19408 -16.36732,-36.56141 -36.5614,-36.56141 z m -91.40348,24.37427 c 13.43631,0 24.37426,10.93186 24.37426,24.37424 0,13.4424 -10.93795,24.37429 -24.37426,24.37429 -13.43631,0 -24.37427,-10.9319 -24.37427,-24.37429 0,-13.44238 10.93796,-24.37424 24.37427,-24.37424 z m -67.02923,0 c 13.43632,0 24.37427,10.93186 24.37427,24.37424 0,13.4424 -10.93795,17.18337 -24.37427,17.18337 -13.43631,0 -24.37426,-3.74098 -24.37426,-17.18337 0,-13.44238 10.93795,-24.37424 24.37426,-24.37424 z m 175.5098,491.14733 -571.67787,0 0,-437.44743 571.67787,0 z m -41.45135,-442.3988 c -13.43631,0 -24.37426,-10.9319 -24.37426,-24.37429 0,-13.44238 10.93795,-24.37424 24.37426,-24.37424 13.43631,0 24.37426,10.93186 24.37426,24.37424 0,13.4424 -10.93795,24.37429 -24.37426,24.37429 z"
   id="path3"
   inkscape:connector-curvature="0"
   style="fill:#ffffff;fill-opacity:1;stroke-width:230;stroke-miterlimit:4;stroke-dasharray:none"
   sodipodi:nodetypes="ssssssssssssssssssscccccsssss" /><g
   id="g3811"
   style="stroke-width:4.00000007;stroke-miterlimit:4;stroke-dasharray:none"
   inkscape:export-filename="/Users/Brand/Documents/!Projects/EntropiaSite/home/static/home/img/quality.png"
   inkscape:export-xdpi="90"
   inkscape:export-ydpi="90"><path
     inkscape:export-ydpi="90"
     inkscape:export-xdpi="90"
     inkscape:export-filename="/Users/Brand/Documents/!Projects/EntropiaSite/home/static/home/img/quality.png"
     style="fill:none;fill-opacity:1;stroke:#000000;stroke-opacity:1;stroke-width:4.00000007;stroke-miterlimit:4;stroke-dasharray:none"
     d="m 528.77087,256.54374 c 2.76647,-0.9811 5.76451,0.5606 7.36712,2.8457 4.05831,5.4598 8.03741,10.9867 12.03479,16.5013 3.37583,4.6555 9.80455,6.8431 15.30094,5.1186 6.87964,-2.2241 13.72881,-4.5641 20.6511,-6.642 3.76582,-1.0907 7.78757,1.8586 7.96429,5.7463 0.14624,7.1173 0.1828,14.2467 0.12796,21.3701 -0.12796,5.6487 3.68661,11.0903 8.94536,13.0829 7.01369,2.3034 14.09441,4.4483 21.03499,6.9588 3.68051,1.298 5.19171,6.0997 3.05287,9.3293 -4.06441,6.0022 -8.50052,11.7545 -12.71727,17.6531 -3.10162,4.3873 -3.20522,10.6454 -0.39608,15.1973 4.26549,6.0326 8.76255,11.9129 12.96711,17.9821 2.23634,3.1748 1.02372,8.0374 -2.64461,9.5304 -6.9101,2.4983 -13.97864,4.5701 -20.94359,6.9649 -4.93578,1.6635 -8.66505,6.3922 -9.22566,11.5473 -0.11577,7.5682 -0.0548,15.1303 -0.16452,22.6985 0.0305,4.0035 -4.05222,7.2453 -7.9521,6.1302 -6.93448,-1.9804 -13.72881,-4.4361 -20.61454,-6.5567 -5.36843,-1.7915 -11.77277,0.2742 -15.12423,4.82 -4.32034,5.795 -8.47615,11.724 -12.83914,17.4824 -2.37649,3.1504 -7.51337,3.1992 -9.89595,0.037 -4.39346,-5.7645 -8.54927,-11.6996 -12.8818,-17.5068 -3.43677,-4.6433 -9.99954,-6.6298 -15.44719,-4.7042 -6.59933,2.1023 -13.1621,4.3325 -19.78581,6.3434 -4.01566,1.4381 -8.49443,-1.7854 -8.50052,-6.0143 -0.0853,-6.965 -0.0488,-13.9299 -0.0366,-20.8949 0.12187,-5.8132 -3.78411,-11.4315 -9.27441,-13.3266 -6.83698,-2.3095 -13.74708,-4.4422 -20.57188,-6.7943 -3.75364,-1.2005 -5.3928,-6.0997 -3.17475,-9.3598 4.00348,-6.0326 8.46397,-11.7605 12.66243,-17.653 3.3149,-4.5702 3.30272,-11.2487 0.0549,-15.8433 -4.22285,-5.9107 -8.56756,-11.7362 -12.72337,-17.6957 -2.1754,-3.2601 -0.60326,-8.0557 3.10163,-9.3597 6.80041,-2.4679 13.73489,-4.5641 20.62672,-6.7883 4.88094,-1.6818 8.54317,-6.3494 9.20128,-11.4498 0.26812,-7.7449 -0.0914,-15.5081 0.20109,-23.2469 0.19499,-3.8877 4.30205,-6.6908 8.00694,-5.6 6.93448,2.0535 13.77146,4.43 20.68157,6.5932 5.61217,1.7794 12.18713,-0.6337 15.47156,-5.4842 3.63176,-5.0942 7.34884,-10.1214 11.01107,-15.1973 1.12122,-1.627 2.49227,-3.2296 4.44831,-3.8146 z"
     id="path6"
     inkscape:connector-curvature="0" /><path
     inkscape:export-ydpi="90"
     inkscape:export-xdpi="90"
     inkscape:export-filename="/Users/Brand/Documents/!Projects/EntropiaSite/home/static/home/img/quality.png"
     style="fill:none;fill-opacity:1;stroke:#000000;stroke-opacity:1;stroke-width:4.00000007;stroke-miterlimit:4;stroke-dasharray:none"
     d="m 611.77132,433.96394 c 22.37558,23.1495 44.48304,46.561 66.74892,69.8323 -19.0302,0.097 -38.05431,-0.031 -57.07843,0.061 -0.0853,19.0241 0.0183,38.0543 -0.0487,57.0784 -25.9525,-27.8171 -51.93547,-55.6038 -77.85749,-83.4453 5.17343,-4.0766 8.81129,-9.6156 12.51618,-14.9719 4.39955,1.0055 8.54318,2.8945 12.95492,3.8694 8.56755,1.9561 17.82977,0.6338 25.42845,-3.8084 10.18844,-5.8133 16.51356,-17.0376 17.33619,-28.6154 z"
     id="path8"
     inkscape:connector-curvature="0" /><path
     inkscape:export-ydpi="90"
     inkscape:export-xdpi="90"
     inkscape:export-filename="/Users/Brand/Documents/!Projects/EntropiaSite/home/static/home/img/quality.png"
     style="fill:none;fill-opacity:1;stroke:#000000;stroke-opacity:1;stroke-width:4.00000007;stroke-miterlimit:4;stroke-dasharray:none"
     d="m 373.84195,503.79624 c 19.798,-20.6938 39.33397,-41.6495 59.34524,-62.1178 3.80239,14.5453 17.77493,25.6661 32.88698,25.5747 7.45243,0.3595 14.32597,-2.7909 21.33357,-4.753 4.96016,7.0259 10.03001,14.393 17.84196,18.5549 -24.75816,26.635 -49.5346,53.2456 -74.28057,79.8806 -0.0731,-19.0242 0.0488,-38.0483 -0.0548,-57.0724 -19.0302,-0.1097 -38.04822,0.03 -57.07234,-0.067 z"
     id="path10"
     inkscape:connector-curvature="0" /></g>
</svg>