<?xml version="1.0" encoding="UTF-8" standalone="no"?>
<!-- Generator: Adobe Illustrator 17.1.0, SVG Export Plug-In . SVG Version: 6.00 Build 0)  -->

<svg
   xmlns:dc="http://purl.org/dc/elements/1.1/"
   xmlns:cc="http://creativecommons.org/ns#"
   xmlns:rdf="http://www.w3.org/1999/02/22-rdf-syntax-ns#"
   xmlns:svg="http://www.w3.org/2000/svg"
   xmlns="http://www.w3.org/2000/svg"
   xmlns:sodipodi="http://sodipodi.sourceforge.net/DTD/sodipodi-0.dtd"
   xmlns:inkscape="http://www.inkscape.org/namespaces/inkscape"
   version="1.1"
   id="Layer_1"
   x="0px"
   y="0px"
   viewBox="0 0 1052.3622 744.09449"
   xml:space="preserve"
   inkscape:version="0.48.2 r9819"
   width="100%"
   height="100%"
   sodipodi:docname="user126.pdf"><metadata
   id="metadata9"><rdf:RDF><cc:Work
       rdf:about=""><dc:format>image/svg+xml</dc:format><dc:type
         rdf:resource="http://purl.org/dc/dcmitype/StillImage" /><dc:title></dc:title></cc:Work></rdf:RDF></metadata><defs
   id="defs7" /><sodipodi:namedview
   pagecolor="#ffffff"
   bordercolor="#666666"
   borderopacity="1"
   objecttolerance="10"
   gridtolerance="10"
   guidetolerance="10"
   inkscape:pageopacity="0"
   inkscape:pageshadow="2"
   inkscape:window-width="1436"
   inkscape:window-height="858"
   id="namedview5"
   showgrid="false"
   inkscape:zoom="0.417193"
   inkscape:cx="456.32885"
   inkscape:cy="687.63666"
   inkscape:window-x="0"
   inkscape:window-y="0"
   inkscape:window-maximized="0"
   inkscape:current-layer="Layer_1" />
<path
   d="m 540.23306,414.19473 c 67.6706,0 122.52852,-54.85792 122.52852,-122.52852 0,-67.67061 -54.85792,-122.52852 -122.52852,-122.52852 -67.67061,0 -122.52853,54.85791 -122.52853,122.52852 0,67.6706 54.85792,122.52852 122.52853,122.52852 z m 65.25785,-86.01704 c -5.57386,18.4299 -36.64191,44.26842 -65.25785,44.26842 -28.61652,0 -70.47037,-35.42641 -76.04423,-53.85631 38.71129,13.68371 102.59079,18.00246 141.30208,9.58789 z m 141.77294,212.77045 0,40.38938 c 0,5.98625 -4.40741,12.94331 -9.87632,15.37717 -21.19629,9.43141 -79.01169,28.73572 -197.15447,28.73572 -118.14279,0 -175.95818,-19.30431 -197.15448,-28.73572 -5.46891,-2.43386 -9.87632,-9.39092 -9.87632,-15.37717 l 0,-40.38938 c 0,-60.52361 46.08131,-110.73341 104.88177,-117.45832 1.78646,-0.20477 4.43593,0.56012 5.89271,1.61478 27.11125,19.62715 60.30287,31.34127 96.25632,31.34127 35.95345,0 69.14563,-11.71412 96.25631,-31.34127 1.45678,-1.05466 4.10625,-1.81955 5.89271,-1.61478 58.80046,6.72491 104.88177,56.93471 104.88177,117.45832 z"
   id="path3"
   inkscape:connector-curvature="0"
   style="fill:none;stroke:#000000;stroke-width:8;stroke-miterlimit:4;stroke-opacity:1;stroke-dasharray:none"
   sodipodi:nodetypes="ssssscsccsscscsscssscs" />
</svg>