<?xml version="1.0" encoding="UTF-8" standalone="no"?>
<!-- Generator: Adobe Illustrator 17.0.2, SVG Export Plug-In . SVG Version: 6.00 Build 0)  -->

<svg
   xmlns:dc="http://purl.org/dc/elements/1.1/"
   xmlns:cc="http://creativecommons.org/ns#"
   xmlns:rdf="http://www.w3.org/1999/02/22-rdf-syntax-ns#"
   xmlns:svg="http://www.w3.org/2000/svg"
   xmlns="http://www.w3.org/2000/svg"
   xmlns:sodipodi="http://sodipodi.sourceforge.net/DTD/sodipodi-0.dtd"
   xmlns:inkscape="http://www.inkscape.org/namespaces/inkscape"
   version="1.1"
   id="Capa_1"
   x="0px"
   y="0px"
   width="1052.3622"
   height="744.09448"
   viewBox="0 0 1052.3622 744.09449"
   xml:space="preserve"
   inkscape:version="0.48.2 r9819"
   sodipodi:docname="circuit4.svg"><metadata
   id="metadata21"><rdf:RDF><cc:Work
       rdf:about=""><dc:format>image/svg+xml</dc:format><dc:type
         rdf:resource="http://purl.org/dc/dcmitype/StillImage" /><dc:title></dc:title></cc:Work></rdf:RDF></metadata><defs
   id="defs19" /><sodipodi:namedview
   pagecolor="#ffffff"
   bordercolor="#666666"
   borderopacity="1"
   objecttolerance="10"
   gridtolerance="10"
   guidetolerance="10"
   inkscape:pageopacity="0"
   inkscape:pageshadow="2"
   inkscape:window-width="1367"
   inkscape:window-height="822"
   id="namedview17"
   showgrid="false"
   inkscape:zoom="0.83049733"
   inkscape:cx="503.70086"
   inkscape:cy="386.75623"
   inkscape:window-x="0"
   inkscape:window-y="0"
   inkscape:window-maximized="0"
   inkscape:current-layer="Capa_1" />
<g
   id="g3"
   transform="matrix(7.7625562,0,0,7.7625562,281.01263,115.63092)"
   inkscape:export-filename="/Users/Brand/Documents/!Projects/EntropiaSite/home/static/home/img/innovations.png"
   inkscape:export-xdpi="90"
   inkscape:export-ydpi="90"
   style="fill:#000000;fill-opacity:1;stroke:none">
	<path
   d="m 13.065,56.529 c -0.702,0.307 -1.194,1.006 -1.194,1.82 0,1.097 0.892,1.988 1.988,1.988 1.096,0 1.988,-0.892 1.988,-1.988 0,-0.95 -0.671,-1.744 -1.564,-1.94 L 9.5,50.879 V 33.256 L 26.274,16.48 c 0.094,-0.094 0.146,-0.221 0.146,-0.353 V 6.53 c 0.854,-0.224 1.488,-0.994 1.488,-1.917 0,-1.097 -0.892,-1.988 -1.988,-1.988 -1.096,0 -1.988,0.892 -1.988,1.988 0,0.923 0.635,1.693 1.488,1.917 v 9.39 L 8.647,32.695 C 8.553,32.789 8.5,32.916 8.5,33.049 v 18.017 c 0,0.12 0.043,0.236 0.122,0.327 l 4.443,5.136 z m 0.794,0.832 c 0.545,0 0.988,0.443 0.988,0.988 0,0.545 -0.443,0.988 -0.988,0.988 -0.545,0 -0.988,-0.443 -0.988,-0.988 0,-0.544 0.444,-0.988 0.988,-0.988 z M 24.932,4.613 c 0,-0.545 0.443,-0.988 0.988,-0.988 0.545,0 0.988,0.443 0.988,0.988 0,0.545 -0.443,0.988 -0.988,0.988 -0.545,0.001 -0.988,-0.443 -0.988,-0.988 z"
   id="path5"
   inkscape:connector-curvature="0"
   style="fill:#000000;fill-opacity:1;stroke:none" />
	<path
   d="M 17.212,56.534 12.321,50.879 V 33.256 L 29.095,16.48 c 0.094,-0.094 0.146,-0.221 0.146,-0.353 V 6.258 c 0,-0.276 -0.224,-0.5 -0.5,-0.5 -0.276,0 -0.5,0.224 -0.5,0.5 V 15.92 L 11.467,32.695 c -0.094,0.094 -0.146,0.221 -0.146,0.353 v 18.017 c 0,0.12 0.044,0.236 0.122,0.327 l 5.013,5.796 c 0.099,0.114 0.238,0.173 0.378,0.173 0.116,0 0.232,-0.04 0.327,-0.122 0.209,-0.18 0.231,-0.496 0.051,-0.705 z"
   id="path7"
   inkscape:connector-curvature="0"
   style="fill:#000000;fill-opacity:1;stroke:none" />
	<path
   d="m 34.027,15.773 -16.92,16.922 c -0.195,0.195 -0.195,0.512 0,0.707 0.098,0.098 0.226,0.146 0.353,0.146 0.128,0 0.256,-0.049 0.354,-0.146 L 34.587,16.627 h 11.741 c 0.224,0.853 0.995,1.488 1.917,1.488 1.096,0 1.988,-0.892 1.988,-1.988 0,-1.097 -0.892,-1.988 -1.988,-1.988 -0.922,0 -1.693,0.635 -1.917,1.488 H 34.381 c -0.133,0 -0.26,0.053 -0.354,0.146 z m 14.219,-0.634 c 0.545,0 0.988,0.443 0.988,0.988 0,0.545 -0.443,0.988 -0.988,0.988 -0.545,0 -0.988,-0.443 -0.988,-0.988 0,-0.545 0.443,-0.988 0.988,-0.988 z"
   id="path9"
   inkscape:connector-curvature="0"
   style="fill:#000000;fill-opacity:1;stroke:none" />
	<path
   d="m 54.308,18.635 c 0,-0.276 -0.224,-0.5 -0.5,-0.5 H 35.164 c -0.133,0 -0.26,0.053 -0.354,0.147 L 20.52,32.573 c -0.987,0.115 -1.758,0.947 -1.758,1.965 0,1.097 0.892,1.988 1.988,1.988 1.096,0 1.988,-0.892 1.988,-1.988 0,-0.75 -0.422,-1.396 -1.035,-1.734 L 35.37,19.136 h 18.437 c 0.277,-10e-4 0.501,-0.225 0.501,-0.501 z M 21.739,34.537 c 0,0.545 -0.443,0.988 -0.988,0.988 -0.545,0 -0.988,-0.443 -0.988,-0.988 0,-0.545 0.443,-0.988 0.988,-0.988 0.545,0 0.988,0.443 0.988,0.988 z"
   id="path11"
   inkscape:connector-curvature="0"
   style="fill:#000000;fill-opacity:1;stroke:none" />
	<path
   d="m 48.251,22.215 c 0.224,0.854 0.995,1.488 1.917,1.488 1.096,0 1.988,-0.892 1.988,-1.988 0,-1.097 -0.892,-1.988 -1.988,-1.988 -0.922,0 -1.693,0.635 -1.917,1.488 H 36.28 c -0.132,0 -0.259,0.053 -0.353,0.146 l -8.74,8.689 c -1.06,0.042 -1.911,0.91 -1.911,1.98 0,1.097 0.892,1.988 1.988,1.988 1.096,0 1.988,-0.892 1.988,-1.988 0,-0.713 -0.38,-1.334 -0.945,-1.685 l 8.178,-8.131 h 11.766 z m 1.917,-1.488 c 0.545,0 0.988,0.443 0.988,0.988 0,0.545 -0.443,0.988 -0.988,0.988 -0.545,0 -0.988,-0.443 -0.988,-0.988 0,-0.545 0.443,-0.988 0.988,-0.988 z M 27.264,33.019 c -0.545,0 -0.988,-0.443 -0.988,-0.988 0,-0.545 0.443,-0.988 0.988,-0.988 0.545,0 0.988,0.443 0.988,0.988 0,0.544 -0.443,0.988 -0.988,0.988 z"
   id="path13"
   inkscape:connector-curvature="0"
   style="fill:#000000;fill-opacity:1;stroke:none" />
	<path
   d="m 20.751,60.338 c 1.096,0 1.988,-0.892 1.988,-1.988 0,-1.097 -0.892,-1.988 -1.988,-1.988 -0.262,0 -0.512,0.054 -0.741,0.147 L 15.141,50.88 V 33.256 L 31.915,16.48 c 0.094,-0.094 0.146,-0.221 0.146,-0.353 V 6.258 c 0,-0.276 -0.224,-0.5 -0.5,-0.5 -0.276,0 -0.5,0.224 -0.5,0.5 V 15.92 L 14.288,32.695 c -0.094,0.094 -0.146,0.221 -0.146,0.353 v 18.017 c 0,0.12 0.043,0.236 0.122,0.327 l 4.946,5.718 c -0.275,0.341 -0.446,0.768 -0.446,1.239 -10e-4,1.097 0.891,1.989 1.987,1.989 z m 0,-2.977 c 0.545,0 0.988,0.443 0.988,0.988 0,0.545 -0.443,0.988 -0.988,0.988 -0.545,0 -0.988,-0.443 -0.988,-0.988 0,-0.544 0.443,-0.988 0.988,-0.988 z"
   id="path15"
   inkscape:connector-curvature="0"
   style="fill:#000000;fill-opacity:1;stroke:none" />
</g>
</svg>